# Blender 4.1.1
# www.blender.org
mtllib bird.mtl
o 円柱.001
v -0.000000 0.697953 -1.166135
v -0.000000 0.780714 -0.652732
v 0.043436 0.697953 -1.166135
v 0.037210 0.776571 -0.652732
v 0.085202 0.697953 -1.166135
v 0.072989 0.764303 -0.652732
v 0.123694 0.697953 -1.166135
v 0.105964 0.744381 -0.652732
v 0.157433 0.697953 -1.166135
v 0.134867 0.717571 -0.652732
v 0.185122 0.697953 -1.166135
v 0.158586 0.684902 -0.652732
v 0.205696 0.697953 -1.166135
v 0.176212 0.647631 -0.652732
v 0.218366 0.697953 -1.166135
v 0.187066 0.607189 -0.652732
v 0.222644 0.697953 -1.166135
v 0.190730 0.529424 -0.652732
v 0.187066 0.451660 -0.652732
v 0.176212 0.411218 -0.652732
v 0.158586 0.373946 -0.652732
v 0.134867 0.341278 -0.652732
v 0.105964 0.314467 -0.652732
v 0.072989 0.294545 -0.652732
v 0.037210 0.282277 -0.652732
v -0.000000 0.278135 -0.652732
v -0.043436 0.697953 -1.166135
v -0.037210 0.282277 -0.652732
v -0.085202 0.697953 -1.166135
v -0.072989 0.294545 -0.652732
v -0.123694 0.697953 -1.166135
v -0.105964 0.314467 -0.652732
v -0.157433 0.697953 -1.166135
v -0.134867 0.341278 -0.652732
v -0.185122 0.697953 -1.166135
v -0.158586 0.373946 -0.652732
v -0.205696 0.697953 -1.166135
v -0.176212 0.411218 -0.652732
v -0.218366 0.697953 -1.166135
v -0.187066 0.451660 -0.652732
v -0.222644 0.697953 -1.166135
v -0.190730 0.529424 -0.652732
v -0.187066 0.607189 -0.652732
v -0.176212 0.647631 -0.652732
v -0.158586 0.684902 -0.652732
v -0.134867 0.717571 -0.652732
v -0.105964 0.744381 -0.652732
v -0.072989 0.764303 -0.652732
v -0.037210 0.776571 -0.652732
v 0.000000 0.922815 0.538372
v 0.075595 0.914399 0.538372
v 0.148285 0.889476 0.538372
v 0.215277 0.849002 0.538372
v 0.273996 0.794534 0.538372
v 0.322185 0.728164 0.538372
v 0.357993 0.652443 0.538372
v 0.380043 0.617801 0.538372
v 0.387488 0.562432 0.538372
v 0.380043 0.538338 0.538372
v 0.357993 0.495710 0.538372
v 0.322185 0.455409 0.538372
v 0.273996 0.403660 0.538372
v 0.215277 0.349192 0.538372
v 0.148285 0.308718 0.538372
v 0.075595 0.283794 0.538372
v 0.000000 0.275379 0.538372
v -0.075595 0.283794 0.538372
v -0.148285 0.308718 0.538372
v -0.215277 0.349192 0.538372
v -0.273996 0.403660 0.538372
v -0.322185 0.455409 0.538372
v -0.357993 0.495710 0.538372
v -0.380043 0.538338 0.538372
v -0.387488 0.562432 0.538372
v -0.380043 0.617801 0.538372
v -0.357993 0.652443 0.538372
v -0.322185 0.728164 0.538372
v -0.273996 0.794534 0.538372
v -0.215277 0.849002 0.538372
v -0.148285 0.889476 0.538372
v -0.075595 0.914399 0.538372
v 0.074143 0.914399 0.555342
v 0.145436 0.889476 0.571371
v 0.211141 0.849002 0.586143
v 0.268731 0.794534 0.599092
v 0.315994 0.728164 0.609718
v 0.351114 0.652443 0.617614
v 0.372741 0.617801 0.622476
v 0.380043 0.564225 0.624118
v 0.372741 0.540130 0.622476
v 0.351114 0.497503 0.617614
v 0.315994 0.457202 0.609718
v 0.268731 0.405453 0.599092
v 0.211141 0.350984 0.586143
v 0.145436 0.310511 0.571371
v 0.074143 0.285587 0.555342
v 0.069841 0.914399 0.571371
v 0.136998 0.889476 0.602813
v 0.198890 0.849002 0.631790
v 0.253139 0.794534 0.657189
v 0.297660 0.728164 0.678033
v 0.330742 0.652443 0.693521
v 0.351114 0.617801 0.703059
v 0.357993 0.564225 0.706280
v 0.351114 0.540130 0.703059
v 0.330742 0.497503 0.693521
v 0.297660 0.457202 0.678033
v 0.253139 0.405453 0.657189
v 0.198890 0.350984 0.631790
v 0.136998 0.310511 0.602813
v 0.069841 0.285587 0.571371
v 0.062855 0.914399 0.586143
v 0.123295 0.889476 0.631790
v 0.178996 0.849002 0.673858
v 0.227819 0.794534 0.710732
v 0.267887 0.728164 0.740992
v 0.297660 0.652443 0.763478
v 0.315994 0.617801 0.777325
v 0.322185 0.564225 0.782001
v 0.315994 0.540130 0.777325
v 0.297660 0.497503 0.763478
v 0.267887 0.457202 0.740992
v 0.227819 0.405453 0.710732
v 0.178996 0.350984 0.673858
v 0.123295 0.310511 0.631790
v 0.062855 0.285587 0.586143
v 0.053454 0.914399 0.599092
v 0.104854 0.889476 0.657189
v 0.152224 0.849002 0.710732
v 0.193744 0.794534 0.757662
v 0.227819 0.728164 0.796177
v 0.253139 0.652443 0.824796
v 0.268731 0.617801 0.842420
v 0.273995 0.564225 0.848370
v 0.268731 0.540130 0.842420
v 0.253139 0.497503 0.824796
v 0.227819 0.457202 0.796177
v 0.193744 0.405453 0.757662
v 0.152224 0.350984 0.710732
v 0.104854 0.310511 0.657189
v 0.053454 0.285587 0.599092
v 0.041998 0.914399 0.609718
v 0.082383 0.889476 0.678033
v 0.119601 0.849002 0.740992
v 0.152224 0.794534 0.796177
v 0.178996 0.728164 0.823876
v 0.198890 0.652443 0.875118
v 0.211140 0.617801 0.895842
v 0.215277 0.564225 0.902839
v 0.211140 0.540130 0.895842
v 0.198890 0.497503 0.875118
v 0.178996 0.457202 0.841466
v 0.152224 0.405453 0.796177
v 0.119601 0.350984 0.740992
v 0.082383 0.310511 0.678033
v 0.041998 0.285587 0.609718
v 0.028929 0.914399 0.617614
v 0.056746 0.889476 0.693521
v 0.082383 0.849002 0.763478
v 0.104854 0.794534 0.824796
v 0.123295 0.728164 0.875118
v 0.136998 0.652443 0.912511
v 0.145436 0.617801 0.935537
v 0.148285 0.564225 0.943312
v 0.145436 0.540130 0.935537
v 0.136998 0.497503 0.912511
v 0.123295 0.457202 0.875118
v 0.104854 0.405453 0.824796
v 0.082383 0.350984 0.763478
v 0.056746 0.310511 0.693521
v 0.028929 0.285587 0.617614
v 0.014748 0.914399 0.622476
v 0.028929 0.889476 0.703059
v 0.041998 0.849002 0.777325
v 0.053454 0.794534 0.842420
v 0.062855 0.728164 0.895842
v 0.069841 0.652443 0.935537
v 0.074143 0.617801 0.959982
v 0.075595 0.561293 0.990856
v 0.074143 0.540130 0.965637
v 0.069841 0.497503 0.935537
v 0.062855 0.457202 0.895842
v 0.053454 0.405453 0.842420
v 0.041998 0.350984 0.777325
v 0.028929 0.310511 0.703059
v 0.014748 0.285587 0.622476
v -0.000000 0.914399 0.624118
v -0.000000 0.889476 0.706280
v -0.000000 0.849002 0.782001
v -0.000000 0.794534 0.848370
v -0.000000 0.728164 0.902839
v 0.000000 0.652443 0.957410
v -0.000000 0.614870 1.056563
v -0.000000 0.561293 1.163345
v -0.000000 0.540130 1.057155
v 0.000000 0.497503 0.967346
v -0.000000 0.457202 0.902839
v -0.000000 0.405453 0.848370
v -0.000000 0.350984 0.782001
v -0.000000 0.310511 0.706280
v -0.000000 0.285587 0.624118
v -0.014748 0.914399 0.622476
v -0.028929 0.889476 0.703059
v -0.041998 0.849002 0.777325
v -0.053454 0.794534 0.842420
v -0.062855 0.728164 0.895842
v -0.069841 0.652443 0.935537
v -0.074143 0.617801 0.959982
v -0.075595 0.561293 0.990856
v -0.074143 0.540130 0.965637
v -0.069841 0.497503 0.935537
v -0.062855 0.457202 0.895842
v -0.053454 0.405453 0.842420
v -0.041998 0.350984 0.777325
v -0.028929 0.310511 0.703059
v -0.014748 0.285587 0.622476
v -0.028929 0.914399 0.617614
v -0.056746 0.889476 0.693521
v -0.082383 0.849002 0.763478
v -0.104854 0.794534 0.824796
v -0.123295 0.728164 0.875118
v -0.136998 0.652443 0.912511
v -0.145436 0.617801 0.935537
v -0.148285 0.564225 0.943312
v -0.145436 0.540130 0.935537
v -0.136998 0.497503 0.912511
v -0.123295 0.457202 0.875118
v -0.104854 0.405453 0.824796
v -0.082383 0.350984 0.763478
v -0.056746 0.310511 0.693521
v -0.028929 0.285587 0.617614
v -0.041998 0.914399 0.609718
v -0.082383 0.889476 0.678033
v -0.119601 0.849002 0.740992
v -0.152224 0.794534 0.796177
v -0.178996 0.728164 0.823876
v -0.198890 0.652443 0.875118
v -0.211141 0.617801 0.895841
v -0.215277 0.564225 0.902838
v -0.211141 0.540130 0.895841
v -0.198890 0.497503 0.875118
v -0.178996 0.457202 0.841466
v -0.152224 0.405453 0.796177
v -0.119601 0.350984 0.740992
v -0.082383 0.310511 0.678033
v -0.041998 0.285587 0.609718
v -0.053454 0.914399 0.599092
v -0.104854 0.889476 0.657189
v -0.152224 0.849002 0.710731
v -0.193744 0.794534 0.757662
v -0.227819 0.728164 0.796177
v -0.253139 0.652443 0.824796
v -0.268731 0.617801 0.842420
v -0.273996 0.564225 0.848370
v -0.268731 0.540130 0.842420
v -0.253139 0.497503 0.824796
v -0.227819 0.457202 0.796177
v -0.193744 0.405453 0.757662
v -0.152224 0.350984 0.710731
v -0.104854 0.310511 0.657189
v -0.053454 0.285587 0.599092
v -0.062855 0.914399 0.586143
v -0.123295 0.889476 0.631790
v -0.178996 0.849002 0.673858
v -0.227819 0.794534 0.710731
v -0.267887 0.728164 0.740992
v -0.297660 0.652443 0.763478
v -0.315994 0.617801 0.777325
v -0.322185 0.564225 0.782000
v -0.315994 0.540130 0.777325
v -0.297660 0.497503 0.763478
v -0.267887 0.457202 0.740992
v -0.227819 0.405453 0.710731
v -0.178996 0.350984 0.673858
v -0.123295 0.310511 0.631790
v -0.062855 0.285587 0.586143
v -0.069841 0.914399 0.571371
v -0.136998 0.889476 0.602813
v -0.198890 0.849002 0.631790
v -0.253139 0.794534 0.657189
v -0.297660 0.728164 0.678033
v -0.330742 0.652443 0.693521
v -0.351114 0.617801 0.703059
v -0.357992 0.564225 0.706280
v -0.351114 0.540130 0.703059
v -0.330742 0.497503 0.693521
v -0.297660 0.457202 0.678033
v -0.253139 0.405453 0.657189
v -0.198890 0.350984 0.631790
v -0.136998 0.310511 0.602813
v -0.069841 0.285587 0.571371
v -0.074143 0.914399 0.555342
v -0.145436 0.889476 0.571371
v -0.211140 0.849002 0.586143
v -0.268731 0.794534 0.599092
v -0.315994 0.728164 0.609717
v -0.351114 0.652443 0.617614
v -0.372740 0.617801 0.622476
v -0.380043 0.564225 0.624118
v -0.372740 0.540130 0.622476
v -0.351114 0.497503 0.617614
v -0.315994 0.457202 0.609717
v -0.268731 0.405453 0.599092
v -0.211140 0.350984 0.586143
v -0.145436 0.310511 0.571371
v -0.074143 0.285587 0.555342
v -0.000000 0.872469 -0.057180
v 0.159004 0.817951 -0.057180
v 0.202374 0.777720 -0.057180
v 0.237967 0.728699 -0.057180
v 0.264415 0.672771 -0.057180
v 0.280701 0.612086 -0.057180
v 0.286200 0.529424 -0.057180
v 0.280701 0.446762 -0.057180
v 0.264415 0.386077 -0.057180
v 0.237967 0.330149 -0.057180
v 0.202374 0.281128 -0.057180
v 0.159004 0.240898 -0.057180
v 0.109524 0.211004 -0.057180
v 0.055835 0.192595 -0.057180
v -0.000000 0.186379 -0.057180
v -0.055835 0.192595 -0.057180
v -0.159004 0.240898 -0.057180
v -0.202374 0.281128 -0.057180
v -0.237967 0.330149 -0.057180
v -0.264415 0.386077 -0.057180
v -0.280701 0.446762 -0.057180
v -0.280701 0.612086 -0.057180
v -0.264415 0.672771 -0.057180
v -0.237967 0.728699 -0.057180
v -0.202374 0.777720 -0.057180
v -0.159004 0.817951 -0.057180
v -0.109524 0.847845 -0.057180
v -0.055835 0.866253 -0.057180
v 0.055835 0.866253 -0.057180
v -0.286200 0.529424 -0.057180
v 0.109524 0.847845 -0.057180
v -0.109524 0.211004 -0.057180
v -0.000000 0.892372 0.240596
v 0.195510 0.825336 0.240596
v 0.248837 0.775869 0.240596
v 0.292602 0.715594 0.240596
v 0.325122 0.646825 0.240596
v 0.345147 0.619728 0.240596
v 0.351909 0.565249 0.240596
v 0.345147 0.514343 0.240596
v 0.325122 0.439725 0.240596
v 0.292602 0.370957 0.240596
v 0.248837 0.310681 0.240596
v 0.195510 0.261214 0.240596
v 0.134670 0.224457 0.240596
v 0.068654 0.201822 0.240596
v -0.000000 0.194179 0.240596
v -0.068654 0.201822 0.240596
v -0.195510 0.261214 0.240596
v -0.248837 0.310681 0.240596
v -0.292602 0.370957 0.240596
v -0.325122 0.439725 0.240596
v -0.345147 0.514343 0.240596
v -0.345147 0.619728 0.240596
v -0.325122 0.646825 0.240596
v -0.292602 0.715594 0.240596
v -0.248837 0.775869 0.240596
v -0.195510 0.825336 0.240596
v -0.134670 0.862094 0.240596
v -0.068654 0.884729 0.240596
v 0.068654 0.884729 0.240596
v -0.351909 0.565249 0.240596
v 0.134670 0.862094 0.240596
v -0.134670 0.224457 0.240596
vn 0.0507 0.9867 -0.1548
vn 0.1548 0.9786 -0.1354
vn 0.2672 0.9587 -0.0975
vn 0.3931 0.9185 -0.0437
vn 0.5362 0.8438 0.0202
vn 0.6960 0.7133 0.0820
vn 0.8582 0.4992 0.1194
vn 0.9911 0.1012 0.0866
vn 0.9946 -0.1016 0.0202
vn 0.8460 -0.4921 -0.2054
vn 0.6511 -0.6674 -0.3614
vn 0.4731 -0.7445 -0.4709
vn 0.3303 -0.7718 -0.5434
vn 0.2168 -0.7779 -0.5898
vn 0.1229 -0.7769 -0.6175
vn 0.0398 -0.7752 -0.6305
vn -0.0398 -0.7752 -0.6305
vn -0.1229 -0.7769 -0.6175
vn -0.2168 -0.7779 -0.5898
vn -0.3303 -0.7718 -0.5434
vn -0.4731 -0.7445 -0.4709
vn -0.6511 -0.6674 -0.3614
vn -0.8460 -0.4921 -0.2054
vn -0.9946 -0.1016 0.0202
vn -0.9911 0.1012 0.0866
vn -0.8582 0.4992 0.1194
vn -0.6960 0.7133 0.0820
vn -0.5362 0.8438 0.0202
vn -0.3931 0.9185 -0.0437
vn -0.2672 0.9587 -0.0975
vn -0.0000 -0.0000 1.0000
vn -0.1548 0.9786 -0.1354
vn -0.0507 0.9867 -0.1548
vn 0.1101 0.9888 -0.1011
vn 0.3227 0.9411 -0.1013
vn 0.5144 0.8515 -0.1018
vn 0.6765 0.7293 -0.1029
vn 0.8048 0.5843 -0.1046
vn 0.8988 0.4250 -0.1072
vn 0.8224 0.5605 -0.0971
vn 0.9851 0.1274 -0.1156
vn 0.9767 -0.1850 -0.1090
vn 0.9394 -0.3371 -0.0616
vn 0.8469 -0.5305 0.0363
vn 0.7676 -0.6301 0.1172
vn 0.6703 -0.7226 0.1690
vn 0.5052 -0.8362 0.2135
vn 0.3144 -0.9171 0.2451
vn 0.1068 -0.9593 0.2616
vn -0.1068 -0.9593 0.2616
vn -0.3144 -0.9171 0.2451
vn -0.5052 -0.8362 0.2135
vn -0.6703 -0.7226 0.1690
vn -0.7676 -0.6301 0.1172
vn -0.8469 -0.5305 0.0363
vn -0.9394 -0.3371 -0.0616
vn -0.9767 -0.1850 -0.1090
vn -0.9851 0.1274 -0.1156
vn -0.8224 0.5605 -0.0971
vn -0.8988 0.4250 -0.1072
vn -0.8048 0.5843 -0.1046
vn -0.6765 0.7293 -0.1029
vn -0.5144 0.8515 -0.1018
vn -0.3227 0.9411 -0.1013
vn -0.1101 0.9888 -0.1011
vn 0.7285 -0.6802 0.0817
vn 0.8072 0.5861 0.0700
vn 0.6763 -0.7319 0.0828
vn 0.9013 0.4262 0.0782
vn 0.5123 -0.8548 0.0823
vn 0.8414 0.5355 0.0730
vn 0.3162 -0.9439 0.0950
vn 0.9873 0.1349 0.0843
vn 0.1106 0.9938 0.0095
vn 0.1099 -0.9874 0.1137
vn 0.9516 -0.2943 0.0888
vn 0.3242 0.9456 0.0279
vn 0.8846 -0.4582 0.0869
vn 0.5166 0.8550 0.0447
vn 0.7444 -0.6629 0.0804
vn 0.6789 0.7319 0.0588
vn 0.1286 -0.9911 0.0345
vn 0.9224 -0.2964 0.2476
vn 0.3120 0.9464 0.0837
vn 0.8570 -0.4611 0.2300
vn 0.4978 0.8569 0.1336
vn 0.7206 -0.6658 0.1934
vn 0.6553 0.7346 0.1759
vn 0.7054 -0.6831 0.1893
vn 0.7804 0.5892 0.2094
vn 0.6553 -0.7346 0.1759
vn 0.8724 0.4290 0.2341
vn 0.4978 -0.8569 0.1336
vn 0.8137 0.5387 0.2184
vn 0.3120 -0.9464 0.0837
vn 0.9565 0.1382 0.2567
vn 0.1063 0.9939 0.0285
vn 0.6082 -0.7399 0.2876
vn 0.8142 0.4345 0.3850
vn 0.4607 -0.8604 0.2178
vn 0.7582 0.5446 0.3585
vn 0.2880 -0.9479 0.1362
vn 0.8951 0.1404 0.4233
vn 0.0979 0.9941 0.0463
vn 0.1184 -0.9914 0.0560
vn 0.8622 -0.3006 0.4077
vn 0.2880 0.9479 0.1362
vn 0.7995 -0.4667 0.3781
vn 0.4607 0.8604 0.2178
vn 0.6698 -0.6716 0.3168
vn 0.6082 0.7399 0.2876
vn 0.6554 -0.6887 0.3099
vn 0.7265 0.5952 0.3435
vn 0.2530 0.9499 0.1837
vn 0.7123 -0.4744 0.5172
vn 0.4060 0.8651 0.2948
vn 0.5939 -0.6793 0.4312
vn 0.5381 0.7468 0.3907
vn 0.5808 -0.6963 0.4217
vn 0.6454 0.6033 0.4686
vn 0.5381 -0.7468 0.3907
vn 0.7259 0.4419 0.5270
vn 0.4060 -0.8651 0.2948
vn 0.6744 0.5527 0.4897
vn 0.2530 -0.9499 0.1837
vn 0.8009 0.1433 0.5815
vn 0.0858 0.9944 0.0623
vn 0.1038 -0.9917 0.0754
vn 0.7703 -0.3064 0.5593
vn 0.5174 0.5149 0.6835
vn 0.3351 -0.8702 0.3613
vn 0.5626 0.5618 0.6065
vn 0.2081 -0.9520 0.2243
vn 0.6727 0.1467 0.7252
vn 0.0704 0.9946 0.0759
vn 0.0852 -0.9921 0.0918
vn 0.6459 -0.3131 0.6963
vn 0.2081 0.9520 0.2243
vn 0.5954 -0.4832 0.6419
vn 0.3351 0.8702 0.3613
vn 0.4936 -0.6879 0.5321
vn 0.4462 0.7546 0.4811
vn 0.4825 -0.7048 0.5201
vn 0.4904 0.5585 0.6690
vn 0.4462 -0.7546 0.4811
vn 0.4503 -0.4917 0.7453
vn 0.2504 0.8750 0.4144
vn 0.3712 -0.6962 0.6144
vn 0.3348 0.7621 0.5542
vn 0.3626 -0.7129 0.6002
vn 0.5081 0.5585 0.6557
vn 0.3348 -0.7621 0.5542
vn 0.5159 0.5151 0.6845
vn 0.2504 -0.8750 0.4144
vn 0.4246 0.5706 0.7029
vn 0.1549 -0.9541 0.2565
vn 0.5113 0.1500 0.8462
vn 0.0523 0.9949 0.0866
vn 0.0633 -0.9925 0.1048
vn 0.4900 -0.3196 0.8110
vn 0.1549 0.9541 0.2565
vn 0.1548 -0.8787 0.4516
vn 0.2647 0.5777 0.7721
vn 0.0956 -0.9556 0.2787
vn 0.4192 0.3153 0.8514
vn 0.0322 0.9951 0.0939
vn 0.0390 -0.9928 0.1137
vn 0.4007 -0.5643 0.7218
vn 0.0956 0.9556 0.2787
vn 0.3024 -0.5362 0.7880
vn 0.1548 0.8787 0.4516
vn 0.2307 -0.7028 0.6729
vn 0.2078 0.7679 0.6060
vn 0.2253 -0.7193 0.6571
vn 0.2524 0.6282 0.7360
vn 0.2078 -0.7679 0.6060
vn 0.2871 0.4654 0.8372
vn 0.0524 0.8807 0.4707
vn 0.1741 -0.7845 0.5952
vn 0.0704 0.7711 0.6328
vn 0.0765 -0.7229 0.6868
vn 0.0857 0.6321 0.7702
vn 0.0704 -0.7711 0.6328
vn 0.1808 0.5257 0.8312
vn 0.0524 -0.8807 0.4707
vn 0.3625 0.8101 0.4607
vn 0.0323 -0.9564 0.2901
vn 0.7382 0.5306 0.4166
vn 0.0109 0.9952 0.0977
vn 0.0132 -0.9929 0.1182
vn 0.4691 -0.8421 0.2661
vn 0.0323 0.9564 0.2901
vn 0.4374 -0.7403 0.5106
vn -0.3625 0.8101 0.4607
vn -0.0323 -0.9564 0.2901
vn -0.7382 0.5306 0.4166
vn -0.0109 0.9952 0.0977
vn -0.0132 -0.9929 0.1182
vn -0.4691 -0.8421 0.2661
vn -0.0323 0.9564 0.2901
vn -0.4374 -0.7403 0.5106
vn -0.0524 0.8807 0.4707
vn -0.1741 -0.7845 0.5952
vn -0.0704 0.7711 0.6328
vn -0.0765 -0.7229 0.6868
vn -0.0857 0.6321 0.7702
vn -0.0704 -0.7711 0.6328
vn -0.1808 0.5257 0.8312
vn -0.0524 -0.8807 0.4707
vn -0.2307 -0.7028 0.6729
vn -0.2078 0.7679 0.6060
vn -0.2253 -0.7193 0.6571
vn -0.2524 0.6282 0.7360
vn -0.2078 -0.7679 0.6060
vn -0.2871 0.4654 0.8372
vn -0.1548 -0.8787 0.4516
vn -0.2647 0.5777 0.7721
vn -0.0956 -0.9556 0.2787
vn -0.4192 0.3153 0.8514
vn -0.0322 0.9951 0.0939
vn -0.0390 -0.9928 0.1137
vn -0.4007 -0.5643 0.7218
vn -0.0956 0.9556 0.2787
vn -0.3024 -0.5362 0.7880
vn -0.1548 0.8787 0.4516
vn -0.1549 -0.9541 0.2565
vn -0.5113 0.1500 0.8462
vn -0.0523 0.9949 0.0866
vn -0.0633 -0.9925 0.1048
vn -0.4900 -0.3196 0.8110
vn -0.1549 0.9541 0.2565
vn -0.4503 -0.4917 0.7453
vn -0.2504 0.8750 0.4144
vn -0.3712 -0.6962 0.6144
vn -0.3348 0.7621 0.5542
vn -0.3626 -0.7129 0.6002
vn -0.5081 0.5585 0.6557
vn -0.3348 -0.7621 0.5542
vn -0.5159 0.5151 0.6845
vn -0.2504 -0.8750 0.4144
vn -0.4247 0.5706 0.7029
vn -0.4825 -0.7048 0.5201
vn -0.4904 0.5585 0.6690
vn -0.4462 -0.7546 0.4810
vn -0.5174 0.5149 0.6835
vn -0.3351 -0.8702 0.3613
vn -0.5626 0.5618 0.6065
vn -0.2081 -0.9520 0.2243
vn -0.6727 0.1467 0.7252
vn -0.0704 0.9946 0.0759
vn -0.0852 -0.9921 0.0918
vn -0.6459 -0.3131 0.6963
vn -0.2081 0.9520 0.2243
vn -0.5954 -0.4832 0.6419
vn -0.3351 0.8702 0.3613
vn -0.4936 -0.6879 0.5321
vn -0.4462 0.7546 0.4810
vn -0.0858 0.9944 0.0623
vn -0.1038 -0.9917 0.0754
vn -0.7703 -0.3064 0.5593
vn -0.2530 0.9499 0.1837
vn -0.7123 -0.4744 0.5172
vn -0.4060 0.8651 0.2948
vn -0.5939 -0.6793 0.4312
vn -0.5381 0.7468 0.3907
vn -0.5808 -0.6963 0.4217
vn -0.6454 0.6033 0.4686
vn -0.5381 -0.7468 0.3907
vn -0.7259 0.4419 0.5270
vn -0.4060 -0.8651 0.2948
vn -0.6744 0.5527 0.4897
vn -0.2530 -0.9499 0.1837
vn -0.8009 0.1433 0.5815
vn -0.7265 0.5952 0.3435
vn -0.6082 -0.7399 0.2876
vn -0.8142 0.4345 0.3850
vn -0.4607 -0.8604 0.2178
vn -0.7582 0.5446 0.3585
vn -0.2880 -0.9479 0.1362
vn -0.8951 0.1404 0.4233
vn -0.0979 0.9941 0.0463
vn -0.1184 -0.9914 0.0560
vn -0.8622 -0.3006 0.4077
vn -0.2880 0.9479 0.1362
vn -0.7995 -0.4667 0.3781
vn -0.4607 0.8604 0.2178
vn -0.6698 -0.6716 0.3168
vn -0.6082 0.7399 0.2876
vn -0.6554 -0.6887 0.3099
vn -0.9224 -0.2964 0.2476
vn -0.3120 0.9464 0.0837
vn -0.8570 -0.4611 0.2300
vn -0.4978 0.8569 0.1336
vn -0.7206 -0.6658 0.1934
vn -0.6553 0.7346 0.1759
vn -0.7054 -0.6831 0.1893
vn -0.7804 0.5892 0.2094
vn -0.6553 -0.7346 0.1759
vn -0.8724 0.4290 0.2341
vn -0.4978 -0.8569 0.1336
vn -0.8137 0.5387 0.2184
vn -0.3120 -0.9464 0.0837
vn -0.9565 0.1382 0.2567
vn -0.1063 0.9939 0.0285
vn -0.1286 -0.9911 0.0345
vn -0.6763 -0.7319 0.0828
vn -0.9013 0.4262 0.0782
vn -0.5123 -0.8548 0.0823
vn -0.8414 0.5355 0.0730
vn -0.3162 -0.9439 0.0950
vn -0.9873 0.1349 0.0843
vn -0.1106 0.9938 0.0095
vn -0.1099 -0.9874 0.1137
vn -0.9516 -0.2942 0.0888
vn -0.3242 0.9456 0.0279
vn -0.8846 -0.4582 0.0869
vn -0.5166 0.8550 0.0447
vn -0.7444 -0.6629 0.0804
vn -0.6789 0.7319 0.0588
vn -0.7285 -0.6802 0.0817
vn -0.8072 0.5861 0.0700
vn -0.1094 0.9824 -0.1514
vn -0.3206 0.9351 -0.1508
vn -0.5113 0.8462 -0.1501
vn -0.6724 0.7249 -0.1494
vn -0.8001 0.5809 -0.1494
vn -0.8938 0.4227 -0.1502
vn -0.9546 0.2562 -0.1522
vn -0.9860 0.0563 -0.1568
vn -0.9860 -0.0563 -0.1568
vn -0.9546 -0.2562 -0.1522
vn -0.8938 -0.4227 -0.1502
vn -0.8001 -0.5809 -0.1494
vn -0.6724 -0.7249 -0.1494
vn -0.5113 -0.8462 -0.1501
vn -0.3206 -0.9351 -0.1508
vn -0.1094 -0.9824 -0.1514
vn 0.1094 -0.9824 -0.1514
vn 0.3206 -0.9351 -0.1508
vn 0.5113 -0.8462 -0.1501
vn 0.6724 -0.7249 -0.1494
vn 0.8001 -0.5809 -0.1494
vn 0.8938 -0.4227 -0.1502
vn 0.9546 -0.2562 -0.1522
vn 0.9860 -0.0563 -0.1568
vn 0.9860 0.0563 -0.1568
vn 0.9546 0.2562 -0.1522
vn 0.8938 0.4227 -0.1502
vn 0.8001 0.5809 -0.1494
vn 0.6724 0.7249 -0.1494
vn 0.5113 0.8462 -0.1501
vn 0.3206 0.9351 -0.1508
vn 0.1094 0.9824 -0.1514
vn -0.1104 0.9917 -0.0663
vn -0.3235 0.9435 -0.0725
vn -0.5153 0.8529 -0.0843
vn -0.6766 0.7294 -0.1010
vn -0.8032 0.5832 -0.1217
vn -0.8944 0.4230 -0.1455
vn -0.9091 0.3760 -0.1795
vn -0.9719 0.0869 -0.2187
vn -0.9761 -0.0896 -0.1978
vn -0.9551 -0.2563 -0.1485
vn -0.8989 -0.4251 -0.1067
vn -0.8073 -0.5862 -0.0678
vn -0.6797 -0.7327 -0.0333
vn -0.5171 -0.8559 -0.0050
vn -0.3243 -0.9458 0.0153
vn -0.1106 -0.9935 0.0260
vn 0.1106 -0.9935 0.0260
vn 0.3243 -0.9458 0.0153
vn 0.5171 -0.8559 -0.0050
vn 0.6797 -0.7327 -0.0333
vn 0.8073 -0.5862 -0.0678
vn 0.8989 -0.4251 -0.1067
vn 0.9551 -0.2563 -0.1485
vn 0.9761 -0.0896 -0.1978
vn 0.9719 0.0869 -0.2187
vn 0.9091 0.3760 -0.1795
vn 0.8944 0.4230 -0.1455
vn 0.8032 0.5832 -0.1217
vn 0.6766 0.7294 -0.1010
vn 0.5153 0.8529 -0.0843
vn 0.3235 0.9435 -0.0725
vn 0.1104 0.9917 -0.0663
vt 1.000000 0.500000
vt 1.000000 1.000000
vt 0.968750 1.000000
vt 0.968750 0.500000
vt 0.937500 1.000000
vt 0.937500 0.500000
vt 0.906250 1.000000
vt 0.906250 0.500000
vt 0.875000 1.000000
vt 0.875000 0.500000
vt 0.843750 1.000000
vt 0.843750 0.500000
vt 0.812500 1.000000
vt 0.812500 0.500000
vt 0.781250 1.000000
vt 0.781250 0.500000
vt 0.750000 1.000000
vt 0.750000 0.500000
vt 0.718750 1.000000
vt 0.718750 0.500000
vt 0.687500 1.000000
vt 0.687500 0.500000
vt 0.656250 1.000000
vt 0.656250 0.500000
vt 0.625000 1.000000
vt 0.625000 0.500000
vt 0.593750 1.000000
vt 0.593750 0.500000
vt 0.562500 1.000000
vt 0.562500 0.500000
vt 0.531250 1.000000
vt 0.531250 0.500000
vt 0.500000 1.000000
vt 0.500000 0.500000
vt 0.468750 1.000000
vt 0.468750 0.500000
vt 0.437500 1.000000
vt 0.437500 0.500000
vt 0.406250 1.000000
vt 0.406250 0.500000
vt 0.375000 1.000000
vt 0.375000 0.500000
vt 0.343750 1.000000
vt 0.343750 0.500000
vt 0.312500 1.000000
vt 0.312500 0.500000
vt 0.281250 1.000000
vt 0.281250 0.500000
vt 0.250000 1.000000
vt 0.250000 0.500000
vt 0.218750 1.000000
vt 0.218750 0.500000
vt 0.187500 1.000000
vt 0.187500 0.500000
vt 0.156250 1.000000
vt 0.156250 0.500000
vt 0.125000 1.000000
vt 0.125000 0.500000
vt 0.093750 1.000000
vt 0.093750 0.500000
vt 0.062500 1.000000
vt 0.062500 0.500000
vt 0.296822 0.485388
vt 0.250000 0.490000
vt 0.203178 0.485388
vt 0.158156 0.471731
vt 0.116663 0.449553
vt 0.080294 0.419706
vt 0.050447 0.383337
vt 0.028269 0.341844
vt 0.014612 0.296822
vt 0.010000 0.250000
vt 0.014612 0.203178
vt 0.028269 0.158156
vt 0.050447 0.116663
vt 0.080294 0.080294
vt 0.116663 0.050447
vt 0.158156 0.028269
vt 0.203178 0.014612
vt 0.250000 0.010000
vt 0.296822 0.014612
vt 0.341844 0.028269
vt 0.383337 0.050447
vt 0.419706 0.080294
vt 0.449553 0.116663
vt 0.471731 0.158156
vt 0.485388 0.203178
vt 0.490000 0.250000
vt 0.485388 0.296822
vt 0.471731 0.341844
vt 0.449553 0.383337
vt 0.419706 0.419706
vt 0.383337 0.449553
vt 0.341844 0.471731
vt 0.031250 1.000000
vt 0.031250 0.500000
vt 0.000000 1.000000
vt 0.000000 0.500000
vt 1.000000 0.875000
vt 0.968750 0.875000
vt 0.937500 0.875000
vt 0.906250 0.875000
vt 0.875000 0.875000
vt 0.843750 0.875000
vt 0.812500 0.875000
vt 0.781250 0.875000
vt 0.750000 0.875000
vt 0.718750 0.875000
vt 0.687500 0.875000
vt 0.656250 0.875000
vt 0.625000 0.875000
vt 0.593750 0.875000
vt 0.562500 0.875000
vt 0.531250 0.875000
vt 0.500000 0.875000
vt 0.468750 0.875000
vt 0.437500 0.875000
vt 0.406250 0.875000
vt 0.375000 0.875000
vt 0.343750 0.875000
vt 0.312500 0.875000
vt 0.281250 0.875000
vt 0.250000 0.875000
vt 0.218750 0.875000
vt 0.187500 0.875000
vt 0.156250 0.875000
vt 0.125000 0.875000
vt 0.093750 0.875000
vt 0.062500 0.875000
vt 0.031250 0.875000
vt 0.000000 0.875000
vt 0.500000 0.250000
vt 0.500000 0.312500
vt 0.468750 0.312500
vt 0.468750 0.250000
vt 0.500000 0.687500
vt 0.500000 0.750000
vt 0.468750 0.750000
vt 0.468750 0.687500
vt 0.500000 0.187500
vt 0.468750 0.187500
vt 0.500000 0.625000
vt 0.468750 0.625000
vt 0.500000 0.125000
vt 0.468750 0.125000
vt 0.500000 0.562500
vt 0.468750 0.562500
vt 0.500000 0.062500
vt 0.468750 0.062500
vt 0.500000 0.500000
vt 0.468750 0.500000
vt 0.500000 0.937500
vt 0.484375 1.000000
vt 0.468750 0.937500
vt 0.484375 0.000000
vt 0.500000 0.437500
vt 0.468750 0.437500
vt 0.468750 0.875000
vt 0.500000 0.375000
vt 0.468750 0.375000
vt 0.500000 0.812500
vt 0.468750 0.812500
vt 0.453125 0.000000
vt 0.437500 0.062500
vt 0.437500 0.500000
vt 0.437500 0.437500
vt 0.437500 0.937500
vt 0.437500 0.375000
vt 0.437500 0.812500
vt 0.437500 0.312500
vt 0.437500 0.750000
vt 0.437500 0.250000
vt 0.437500 0.687500
vt 0.437500 0.187500
vt 0.437500 0.625000
vt 0.437500 0.125000
vt 0.437500 0.562500
vt 0.453125 1.000000
vt 0.406250 0.250000
vt 0.406250 0.187500
vt 0.406250 0.687500
vt 0.406250 0.625000
vt 0.406250 0.125000
vt 0.406250 0.562500
vt 0.406250 0.062500
vt 0.406250 0.500000
vt 0.421875 1.000000
vt 0.406250 0.937500
vt 0.421875 0.000000
vt 0.406250 0.437500
vt 0.406250 0.875000
vt 0.406250 0.375000
vt 0.406250 0.812500
vt 0.406250 0.312500
vt 0.406250 0.750000
vt 0.375000 0.937500
vt 0.375000 0.875000
vt 0.375000 0.437500
vt 0.375000 0.375000
vt 0.375000 0.812500
vt 0.375000 0.312500
vt 0.375000 0.750000
vt 0.375000 0.250000
vt 0.375000 0.687500
vt 0.375000 0.187500
vt 0.375000 0.625000
vt 0.375000 0.125000
vt 0.375000 0.562500
vt 0.375000 0.062500
vt 0.375000 0.500000
vt 0.390625 1.000000
vt 0.390625 0.000000
vt 0.343750 0.687500
vt 0.343750 0.625000
vt 0.343750 0.187500
vt 0.343750 0.125000
vt 0.343750 0.562500
vt 0.343750 0.062500
vt 0.343750 0.500000
vt 0.359375 1.000000
vt 0.343750 0.937500
vt 0.359375 0.000000
vt 0.343750 0.437500
vt 0.343750 0.875000
vt 0.343750 0.375000
vt 0.343750 0.812500
vt 0.343750 0.312500
vt 0.343750 0.750000
vt 0.343750 0.250000
vt 0.312500 0.437500
vt 0.312500 0.375000
vt 0.312500 0.812500
vt 0.312500 0.312500
vt 0.312500 0.750000
vt 0.312500 0.250000
vt 0.312500 0.687500
vt 0.312500 0.187500
vt 0.312500 0.625000
vt 0.312500 0.125000
vt 0.312500 0.562500
vt 0.312500 0.062500
vt 0.312500 0.500000
vt 0.328125 1.000000
vt 0.312500 0.937500
vt 0.328125 0.000000
vt 0.281250 0.187500
vt 0.281250 0.125000
vt 0.281250 0.625000
vt 0.281250 0.562500
vt 0.281250 0.062500
vt 0.281250 0.500000
vt 0.296875 1.000000
vt 0.281250 0.937500
vt 0.296875 0.000000
vt 0.281250 0.437500
vt 0.281250 0.375000
vt 0.281250 0.812500
vt 0.281250 0.312500
vt 0.281250 0.750000
vt 0.281250 0.250000
vt 0.281250 0.687500
vt 0.250000 0.875000
vt 0.250000 0.812500
vt 0.250000 0.375000
vt 0.250000 0.312500
vt 0.250000 0.750000
vt 0.250000 0.250000
vt 0.250000 0.687500
vt 0.250000 0.187500
vt 0.250000 0.625000
vt 0.250000 0.125000
vt 0.250000 0.562500
vt 0.250000 0.062500
vt 0.250000 0.500000
vt 0.265625 1.000000
vt 0.250000 0.937500
vt 0.265625 0.000000
vt 0.250000 0.437500
vt 0.218750 0.625000
vt 0.218750 0.562500
vt 0.218750 0.125000
vt 0.218750 0.062500
vt 0.218750 0.500000
vt 0.234375 1.000000
vt 0.218750 0.937500
vt 0.234375 0.000000
vt 0.218750 0.437500
vt 0.218750 0.375000
vt 0.218750 0.812500
vt 0.218750 0.312500
vt 0.218750 0.750000
vt 0.218750 0.250000
vt 0.218750 0.687500
vt 0.218750 0.187500
vt 0.187500 0.375000
vt 0.187500 0.312500
vt 0.187500 0.812500
vt 0.187500 0.750000
vt 0.187500 0.250000
vt 0.187500 0.687500
vt 0.187500 0.187500
vt 0.187500 0.625000
vt 0.187500 0.125000
vt 0.187500 0.562500
vt 0.187500 0.062500
vt 0.187500 0.500000
vt 0.203125 1.000000
vt 0.187500 0.937500
vt 0.203125 0.000000
vt 0.187500 0.437500
vt 0.156250 0.125000
vt 0.156250 0.062500
vt 0.156250 0.562500
vt 0.156250 0.500000
vt 0.171875 1.000000
vt 0.156250 0.937500
vt 0.171875 0.000000
vt 0.156250 0.437500
vt 0.156250 0.875000
vt 0.156250 0.375000
vt 0.156250 0.812500
vt 0.156250 0.312500
vt 0.156250 0.750000
vt 0.156250 0.250000
vt 0.156250 0.687500
vt 0.156250 0.187500
vt 0.156250 0.625000
vt 0.125000 0.312500
vt 0.125000 0.250000
vt 0.125000 0.750000
vt 0.125000 0.687500
vt 0.125000 0.187500
vt 0.125000 0.625000
vt 0.125000 0.125000
vt 0.125000 0.562500
vt 0.125000 0.062500
vt 0.125000 0.500000
vt 0.140625 1.000000
vt 0.125000 0.937500
vt 0.140625 0.000000
vt 0.125000 0.437500
vt 0.125000 0.875000
vt 0.125000 0.375000
vt 0.125000 0.812500
vt 0.109375 1.000000
vt 0.093750 0.937500
vt 0.109375 0.000000
vt 0.093750 0.062500
vt 0.093750 0.500000
vt 0.093750 0.437500
vt 0.093750 0.875000
vt 0.093750 0.375000
vt 0.093750 0.812500
vt 0.093750 0.312500
vt 0.093750 0.750000
vt 0.093750 0.250000
vt 0.093750 0.687500
vt 0.093750 0.187500
vt 0.093750 0.625000
vt 0.093750 0.125000
vt 0.093750 0.562500
vt 0.062500 0.750000
vt 0.062500 0.687500
vt 0.062500 0.250000
vt 0.062500 0.187500
vt 0.062500 0.625000
vt 0.062500 0.125000
vt 0.062500 0.562500
vt 0.062500 0.062500
vt 0.062500 0.500000
vt 0.078125 1.000000
vt 0.062500 0.937500
vt 0.078125 0.000000
vt 0.062500 0.437500
vt 0.062500 0.875000
vt 0.062500 0.375000
vt 0.062500 0.812500
vt 0.062500 0.312500
vt 0.031250 0.500000
vt 0.031250 0.437500
vt 0.031250 0.937500
vt 0.031250 0.875000
vt 0.031250 0.375000
vt 0.031250 0.812500
vt 0.031250 0.312500
vt 0.031250 0.750000
vt 0.031250 0.250000
vt 0.031250 0.687500
vt 0.031250 0.187500
vt 0.031250 0.625000
vt 0.031250 0.125000
vt 0.031250 0.562500
vt 0.031250 0.062500
vt 0.046875 1.000000
vt 0.046875 0.000000
vt 0.000000 0.250000
vt 0.000000 0.187500
vt 0.000000 0.687500
vt 0.000000 0.625000
vt 0.000000 0.125000
vt 0.000000 0.562500
vt 0.000000 0.062500
vt 0.015625 1.000000
vt 0.000000 0.937500
vt 0.015625 0.000000
vt 0.000000 0.437500
vt 0.000000 0.875000
vt 0.000000 0.375000
vt 0.000000 0.812500
vt 0.000000 0.312500
vt 0.000000 0.750000
vt 0.031250 0.750000
vt 0.062500 0.750000
vt 0.093750 0.750000
vt 0.125000 0.750000
vt 0.156250 0.750000
vt 0.187500 0.750000
vt 0.218750 0.750000
vt 0.250000 0.750000
vt 0.281250 0.750000
vt 0.312500 0.750000
vt 0.343750 0.750000
vt 0.375000 0.750000
vt 0.406250 0.750000
vt 0.437500 0.750000
vt 0.468750 0.750000
vt 0.531250 0.750000
vt 0.562500 0.750000
vt 0.593750 0.750000
vt 0.625000 0.750000
vt 0.656250 0.750000
vt 0.687500 0.750000
vt 0.718750 0.750000
vt 0.750000 0.750000
vt 0.781250 0.750000
vt 0.812500 0.750000
vt 0.843750 0.750000
vt 0.875000 0.750000
vt 0.906250 0.750000
vt 0.937500 0.750000
vt 0.968750 0.750000
vt 1.000000 0.750000
s 0
f 1/1/1 2/2/1 4/3/1 3/4/1
f 3/4/2 4/3/2 6/5/2 5/6/2
f 5/6/3 6/5/3 8/7/3 7/8/3
f 7/8/4 8/7/4 10/9/4 9/10/4
f 9/10/5 10/9/5 12/11/5 11/12/5
f 11/12/6 12/11/6 14/13/6 13/14/6
f 13/14/7 14/13/7 16/15/7 15/16/7
f 15/16/8 16/15/8 18/17/8 17/18/8
f 17/18/9 18/17/9 19/19/9 15/20/9
f 15/20/10 19/19/10 20/21/10 13/22/10
f 13/22/11 20/21/11 21/23/11 11/24/11
f 11/24/12 21/23/12 22/25/12 9/26/12
f 9/26/13 22/25/13 23/27/13 7/28/13
f 7/28/14 23/27/14 24/29/14 5/30/14
f 5/30/15 24/29/15 25/31/15 3/32/15
f 3/32/16 25/31/16 26/33/16 1/34/16
f 1/34/17 26/33/17 28/35/17 27/36/17
f 27/36/18 28/35/18 30/37/18 29/38/18
f 29/38/19 30/37/19 32/39/19 31/40/19
f 31/40/20 32/39/20 34/41/20 33/42/20
f 33/42/21 34/41/21 36/43/21 35/44/21
f 35/44/22 36/43/22 38/45/22 37/46/22
f 37/46/23 38/45/23 40/47/23 39/48/23
f 39/48/24 40/47/24 42/49/24 41/50/24
f 41/50/25 42/49/25 43/51/25 39/52/25
f 39/52/26 43/51/26 44/53/26 37/54/26
f 37/54/27 44/53/27 45/55/27 35/56/27
f 35/56/28 45/55/28 46/57/28 33/58/28
f 33/58/29 46/57/29 47/59/29 31/60/29
f 31/60/30 47/59/30 48/61/30 29/62/30
f 4/63/31 2/64/31 49/65/31 48/66/31 47/67/31 46/68/31 45/69/31 44/70/31 43/71/31 42/72/31 40/73/31 38/74/31 36/75/31 34/76/31 32/77/31 30/78/31 28/79/31 26/80/31 25/81/31 24/82/31 23/83/31 22/84/31 21/85/31 20/86/31 19/87/31 18/88/31 16/89/31 14/90/31 12/91/31 10/92/31 8/93/31 6/94/31
f 29/62/32 48/61/32 49/95/32 27/96/32
f 27/96/33 49/95/33 2/97/33 1/98/33
f 339/99/34 50/2/34 51/3/34 367/100/34
f 367/100/35 51/3/35 52/5/35 369/101/35
f 369/101/36 52/5/36 53/7/36 340/102/36
f 340/102/37 53/7/37 54/9/37 341/103/37
f 341/103/38 54/9/38 55/11/38 342/104/38
f 342/104/39 55/11/39 56/13/39 343/105/39
f 343/105/40 56/13/40 57/15/40 344/106/40
f 344/106/41 57/15/41 58/17/41 345/107/41
f 345/107/42 58/17/42 59/19/42 346/108/42
f 346/108/43 59/19/43 60/21/43 347/109/43
f 347/109/44 60/21/44 61/23/44 348/110/44
f 348/110/45 61/23/45 62/25/45 349/111/45
f 349/111/46 62/25/46 63/27/46 350/112/46
f 350/112/47 63/27/47 64/29/47 351/113/47
f 351/113/48 64/29/48 65/31/48 352/114/48
f 352/114/49 65/31/49 66/33/49 353/115/49
f 353/115/50 66/33/50 67/35/50 354/116/50
f 354/116/51 67/35/51 68/37/51 370/117/51
f 370/117/52 68/37/52 69/39/52 355/118/52
f 355/118/53 69/39/53 70/41/53 356/119/53
f 356/119/54 70/41/54 71/43/54 357/120/54
f 357/120/55 71/43/55 72/45/55 358/121/55
f 358/121/56 72/45/56 73/47/56 359/122/56
f 359/122/57 73/47/57 74/49/57 368/123/57
f 368/123/58 74/49/58 75/51/58 360/124/58
f 360/124/59 75/51/59 76/53/59 361/125/59
f 361/125/60 76/53/60 77/55/60 362/126/60
f 362/126/61 77/55/61 78/57/61 363/127/61
f 363/127/62 78/57/62 79/59/62 364/128/62
f 364/128/63 79/59/63 80/61/63 365/129/63
f 51/63/31 50/64/31 81/65/31 80/66/31 79/67/31 78/68/31 77/69/31 76/70/31 75/71/31 74/72/31 73/73/31 72/74/31 71/75/31 70/76/31 69/77/31 68/78/31 67/79/31 66/80/31 65/81/31 64/82/31 63/83/31 62/84/31 61/85/31 60/86/31 59/87/31 58/88/31 57/89/31 56/90/31 55/91/31 54/92/31 53/93/31 52/94/31
f 365/129/64 80/61/64 81/95/64 366/130/64
f 366/130/65 81/95/65 50/97/65 339/131/65
f 62/132/66 61/133/66 92/134/66 93/135/66
f 55/136/67 54/137/67 85/138/67 86/139/67
f 63/140/68 62/132/68 93/135/68 94/141/68
f 56/142/69 55/136/69 86/139/69 87/143/69
f 64/144/70 63/140/70 94/141/70 95/145/70
f 57/146/71 56/142/71 87/143/71 88/147/71
f 65/148/72 64/144/72 95/145/72 96/149/72
f 58/150/73 57/146/73 88/147/73 89/151/73
f 51/152/74 50/153/74 82/154/74
f 66/155/75 65/148/75 96/149/75
f 59/156/76 58/150/76 89/151/76 90/157/76
f 52/115/77 51/152/77 82/154/77 83/158/77
f 60/159/78 59/156/78 90/157/78 91/160/78
f 53/161/79 52/115/79 83/158/79 84/162/79
f 61/133/80 60/159/80 91/160/80 92/134/80
f 54/137/81 53/161/81 84/162/81 85/138/81
f 66/163/82 96/149/82 111/164/82
f 90/157/83 89/151/83 104/165/83 105/166/83
f 83/158/84 82/154/84 97/167/84 98/117/84
f 91/160/85 90/157/85 105/166/85 106/168/85
f 84/162/86 83/158/86 98/117/86 99/169/86
f 92/134/87 91/160/87 106/168/87 107/170/87
f 85/138/88 84/162/88 99/169/88 100/171/88
f 93/135/89 92/134/89 107/170/89 108/172/89
f 86/139/90 85/138/90 100/171/90 101/173/90
f 94/141/91 93/135/91 108/172/91 109/174/91
f 87/143/92 86/139/92 101/173/92 102/175/92
f 95/145/93 94/141/93 109/174/93 110/176/93
f 88/147/94 87/143/94 102/175/94 103/177/94
f 96/149/95 95/145/95 110/176/95 111/164/95
f 89/151/96 88/147/96 103/177/96 104/165/96
f 82/154/97 50/178/97 97/167/97
f 109/174/98 108/172/98 123/179/98 124/180/98
f 102/175/99 101/173/99 116/181/99 117/182/99
f 110/176/100 109/174/100 124/180/100 125/183/100
f 103/177/101 102/175/101 117/182/101 118/184/101
f 111/164/102 110/176/102 125/183/102 126/185/102
f 104/165/103 103/177/103 118/184/103 119/186/103
f 97/167/104 50/187/104 112/188/104
f 66/189/105 111/164/105 126/185/105
f 105/166/106 104/165/106 119/186/106 120/190/106
f 98/117/107 97/167/107 112/188/107 113/191/107
f 106/168/108 105/166/108 120/190/108 121/192/108
f 99/169/109 98/117/109 113/191/109 114/193/109
f 107/170/110 106/168/110 121/192/110 122/194/110
f 100/171/111 99/169/111 114/193/111 115/195/111
f 108/172/112 107/170/112 122/194/112 123/179/112
f 101/173/113 100/171/113 115/195/113 116/181/113
f 113/191/114 112/188/114 127/196/114 128/197/114
f 121/192/115 120/190/115 135/198/115 136/199/115
f 114/193/116 113/191/116 128/197/116 129/200/116
f 122/194/117 121/192/117 136/199/117 137/201/117
f 115/195/118 114/193/118 129/200/118 130/202/118
f 123/179/119 122/194/119 137/201/119 138/203/119
f 116/181/120 115/195/120 130/202/120 131/204/120
f 124/180/121 123/179/121 138/203/121 139/205/121
f 117/182/122 116/181/122 131/204/122 132/206/122
f 125/183/123 124/180/123 139/205/123 140/207/123
f 118/184/124 117/182/124 132/206/124 133/208/124
f 126/185/125 125/183/125 140/207/125 141/209/125
f 119/186/126 118/184/126 133/208/126 134/210/126
f 112/188/127 50/211/127 127/196/127
f 66/212/128 126/185/128 141/209/128
f 120/190/129 119/186/129 134/210/129 135/198/129
f 132/206/130 131/204/130 146/213/130 147/214/130
f 140/207/131 139/205/131 154/215/131 155/216/131
f 133/208/132 132/206/132 147/214/132 148/217/132
f 141/209/133 140/207/133 155/216/133 156/218/133
f 134/210/134 133/208/134 148/217/134 149/219/134
f 127/196/135 50/220/135 142/221/135
f 66/222/136 141/209/136 156/218/136
f 135/198/137 134/210/137 149/219/137 150/223/137
f 128/197/138 127/196/138 142/221/138 143/224/138
f 136/199/139 135/198/139 150/223/139 151/225/139
f 129/200/140 128/197/140 143/224/140 144/226/140
f 137/201/141 136/199/141 151/225/141 152/227/141
f 130/202/142 129/200/142 144/226/142 145/228/142
f 138/203/143 137/201/143 152/227/143 153/229/143
f 131/204/144 130/202/144 145/228/144 146/213/144
f 139/205/145 138/203/145 153/229/145 154/215/145
f 151/225/146 150/223/146 165/230/146 166/231/146
f 144/226/147 143/224/147 158/121/147 159/232/147
f 152/227/148 151/225/148 166/231/148 167/233/148
f 145/228/149 144/226/149 159/232/149 160/234/149
f 153/229/150 152/227/150 167/233/150 168/235/150
f 146/213/151 145/228/151 160/234/151 161/236/151
f 154/215/152 153/229/152 168/235/152 169/237/152
f 147/214/153 146/213/153 161/236/153 162/238/153
f 155/216/154 154/215/154 169/237/154 170/239/154
f 148/217/155 147/214/155 162/238/155 163/240/155
f 156/218/156 155/216/156 170/239/156 171/241/156
f 149/219/157 148/217/157 163/240/157 164/242/157
f 142/221/158 50/243/158 157/244/158
f 66/245/159 156/218/159 171/241/159
f 150/223/160 149/219/160 164/242/160 165/230/160
f 143/224/161 142/221/161 157/244/161 158/121/161
f 170/239/162 169/237/162 184/246/162 185/247/162
f 163/240/163 162/238/163 177/248/163 178/249/163
f 171/241/164 170/239/164 185/247/164 186/250/164
f 164/242/165 163/240/165 178/249/165 179/251/165
f 157/244/166 50/252/166 172/253/166
f 66/254/167 171/241/167 186/250/167
f 165/230/168 164/242/168 179/251/168 180/255/168
f 158/121/169 157/244/169 172/253/169 173/122/169
f 166/231/170 165/230/170 180/255/170 181/256/170
f 159/232/171 158/121/171 173/122/171 174/257/171
f 167/233/172 166/231/172 181/256/172 182/258/172
f 160/234/173 159/232/173 174/257/173 175/259/173
f 168/235/174 167/233/174 182/258/174 183/260/174
f 161/236/175 160/234/175 175/259/175 176/261/175
f 169/237/176 168/235/176 183/260/176 184/246/176
f 162/238/177 161/236/177 176/261/177 177/248/177
f 174/257/178 173/122/178 188/262/178 189/263/178
f 182/258/179 181/256/179 196/264/179 197/265/179
f 175/259/180 174/257/180 189/263/180 190/266/180
f 183/260/181 182/258/181 197/265/181 198/267/181
f 176/261/182 175/259/182 190/266/182 191/268/182
f 184/246/183 183/260/183 198/267/183 199/269/183
f 177/248/184 176/261/184 191/268/184 192/270/184
f 185/247/185 184/246/185 199/269/185 200/271/185
f 178/249/186 177/248/186 192/270/186 193/272/186
f 186/250/187 185/247/187 200/271/187 201/273/187
f 179/251/188 178/249/188 193/272/188 194/274/188
f 172/253/189 50/275/189 187/276/189
f 66/277/190 186/250/190 201/273/190
f 180/255/191 179/251/191 194/274/191 195/278/191
f 173/122/192 172/253/192 187/276/192 188/262/192
f 181/256/193 180/255/193 195/278/193 196/264/193
f 193/272/194 192/270/194 207/279/194 208/280/194
f 201/273/195 200/271/195 215/281/195 216/282/195
f 194/274/196 193/272/196 208/280/196 209/283/196
f 187/276/197 50/284/197 202/285/197
f 66/286/198 201/273/198 216/282/198
f 195/278/199 194/274/199 209/283/199 210/287/199
f 188/262/200 187/276/200 202/285/200 203/124/200
f 196/264/201 195/278/201 210/287/201 211/288/201
f 189/263/202 188/262/202 203/124/202 204/289/202
f 197/265/203 196/264/203 211/288/203 212/290/203
f 190/266/204 189/263/204 204/289/204 205/291/204
f 198/267/205 197/265/205 212/290/205 213/292/205
f 191/268/206 190/266/206 205/291/206 206/293/206
f 199/269/207 198/267/207 213/292/207 214/294/207
f 192/270/208 191/268/208 206/293/208 207/279/208
f 200/271/209 199/269/209 214/294/209 215/281/209
f 212/290/210 211/288/210 226/295/210 227/296/210
f 205/291/211 204/289/211 219/297/211 220/298/211
f 213/292/212 212/290/212 227/296/212 228/299/212
f 206/293/213 205/291/213 220/298/213 221/300/213
f 214/294/214 213/292/214 228/299/214 229/301/214
f 207/279/215 206/293/215 221/300/215 222/302/215
f 215/281/216 214/294/216 229/301/216 230/303/216
f 208/280/217 207/279/217 222/302/217 223/304/217
f 216/282/218 215/281/218 230/303/218 231/305/218
f 209/283/219 208/280/219 223/304/219 224/306/219
f 202/285/220 50/307/220 217/308/220
f 66/309/221 216/282/221 231/305/221
f 210/287/222 209/283/222 224/306/222 225/310/222
f 203/124/223 202/285/223 217/308/223 218/125/223
f 211/288/224 210/287/224 225/310/224 226/295/224
f 204/289/225 203/124/225 218/125/225 219/297/225
f 231/305/226 230/303/226 245/311/226 246/312/226
f 224/306/227 223/304/227 238/313/227 239/314/227
f 217/308/228 50/315/228 232/316/228
f 66/317/229 231/305/229 246/312/229
f 225/310/230 224/306/230 239/314/230 240/318/230
f 218/125/231 217/308/231 232/316/231 233/319/231
f 226/295/232 225/310/232 240/318/232 241/320/232
f 219/297/233 218/125/233 233/319/233 234/321/233
f 227/296/234 226/295/234 241/320/234 242/322/234
f 220/298/235 219/297/235 234/321/235 235/323/235
f 228/299/236 227/296/236 242/322/236 243/324/236
f 221/300/237 220/298/237 235/323/237 236/325/237
f 229/301/238 228/299/238 243/324/238 244/326/238
f 222/302/239 221/300/239 236/325/239 237/327/239
f 230/303/240 229/301/240 244/326/240 245/311/240
f 223/304/241 222/302/241 237/327/241 238/313/241
f 243/324/242 242/322/242 257/328/242 258/329/242
f 236/325/243 235/323/243 250/330/243 251/331/243
f 244/326/244 243/324/244 258/329/244 259/332/244
f 237/327/245 236/325/245 251/331/245 252/333/245
f 245/311/246 244/326/246 259/332/246 260/334/246
f 238/313/247 237/327/247 252/333/247 253/335/247
f 246/312/248 245/311/248 260/334/248 261/336/248
f 239/314/249 238/313/249 253/335/249 254/337/249
f 232/316/250 50/338/250 247/339/250
f 66/340/251 246/312/251 261/336/251
f 240/318/252 239/314/252 254/337/252 255/341/252
f 233/319/253 232/316/253 247/339/253 248/342/253
f 241/320/254 240/318/254 255/341/254 256/343/254
f 234/321/255 233/319/255 248/342/255 249/344/255
f 242/322/256 241/320/256 256/343/256 257/328/256
f 235/323/257 234/321/257 249/344/257 250/330/257
f 247/339/258 50/345/258 262/346/258
f 66/347/259 261/336/259 276/348/259
f 255/341/260 254/337/260 269/349/260 270/350/260
f 248/342/261 247/339/261 262/346/261 263/351/261
f 256/343/262 255/341/262 270/350/262 271/352/262
f 249/344/263 248/342/263 263/351/263 264/353/263
f 257/328/264 256/343/264 271/352/264 272/354/264
f 250/330/265 249/344/265 264/353/265 265/355/265
f 258/329/266 257/328/266 272/354/266 273/356/266
f 251/331/267 250/330/267 265/355/267 266/357/267
f 259/332/268 258/329/268 273/356/268 274/358/268
f 252/333/269 251/331/269 266/357/269 267/359/269
f 260/334/270 259/332/270 274/358/270 275/360/270
f 253/335/271 252/333/271 267/359/271 268/361/271
f 261/336/272 260/334/272 275/360/272 276/348/272
f 254/337/273 253/335/273 268/361/273 269/349/273
f 266/357/274 265/355/274 280/362/274 281/363/274
f 274/358/275 273/356/275 288/364/275 289/365/275
f 267/359/276 266/357/276 281/363/276 282/366/276
f 275/360/277 274/358/277 289/365/277 290/367/277
f 268/361/278 267/359/278 282/366/278 283/368/278
f 276/348/279 275/360/279 290/367/279 291/369/279
f 269/349/280 268/361/280 283/368/280 284/370/280
f 262/346/281 50/371/281 277/372/281
f 66/373/282 276/348/282 291/369/282
f 270/350/283 269/349/283 284/370/283 285/374/283
f 263/351/284 262/346/284 277/372/284 278/375/284
f 271/352/285 270/350/285 285/374/285 286/376/285
f 264/353/286 263/351/286 278/375/286 279/377/286
f 272/354/287 271/352/287 286/376/287 287/378/287
f 265/355/288 264/353/288 279/377/288 280/362/288
f 273/356/289 272/354/289 287/378/289 288/364/289
f 285/374/290 284/370/290 299/379/290 300/380/290
f 278/375/291 277/372/291 292/381/291 293/382/291
f 286/376/292 285/374/292 300/380/292 301/383/292
f 279/377/293 278/375/293 293/382/293 294/384/293
f 287/378/294 286/376/294 301/383/294 302/385/294
f 280/362/295 279/377/295 294/384/295 295/386/295
f 288/364/296 287/378/296 302/385/296 303/387/296
f 281/363/297 280/362/297 295/386/297 296/388/297
f 289/365/298 288/364/298 303/387/298 304/389/298
f 282/366/299 281/363/299 296/388/299 297/390/299
f 290/367/300 289/365/300 304/389/300 305/391/300
f 283/368/301 282/366/301 297/390/301 298/392/301
f 291/369/302 290/367/302 305/391/302 306/393/302
f 284/370/303 283/368/303 298/392/303 299/379/303
f 277/372/304 50/394/304 292/381/304
f 66/395/305 291/369/305 306/393/305
f 304/389/306 303/387/306 70/396/306 69/397/306
f 297/390/307 296/388/307 77/398/307 76/399/307
f 305/391/308 304/389/308 69/397/308 68/400/308
f 298/392/309 297/390/309 76/399/309 75/401/309
f 306/393/310 305/391/310 68/400/310 67/402/310
f 299/379/311 298/392/311 75/401/311 74/98/311
f 292/381/312 50/403/312 81/404/312
f 66/405/313 306/393/313 67/402/313
f 300/380/314 299/379/314 74/98/314 73/406/314
f 293/382/315 292/381/315 81/404/315 80/407/315
f 301/383/316 300/380/316 73/406/316 72/408/316
f 294/384/317 293/382/317 80/407/317 79/409/317
f 302/385/318 301/383/318 72/408/318 71/410/318
f 295/386/319 294/384/319 79/409/319 78/411/319
f 303/387/320 302/385/320 71/410/320 70/396/320
f 296/388/321 295/386/321 78/411/321 77/398/321
f 49/96/322 334/412/322 307/411/322 2/98/322
f 48/62/323 333/413/323 334/412/323 49/96/323
f 47/60/324 332/414/324 333/413/324 48/62/324
f 46/58/325 331/415/325 332/414/325 47/60/325
f 45/56/326 330/416/326 331/415/326 46/58/326
f 44/54/327 329/417/327 330/416/327 45/56/327
f 43/52/328 328/418/328 329/417/328 44/54/328
f 42/50/329 336/419/329 328/418/329 43/52/329
f 40/48/330 327/420/330 336/419/330 42/50/330
f 38/46/331 326/421/331 327/420/331 40/48/331
f 36/44/332 325/422/332 326/421/332 38/46/332
f 34/42/333 324/423/333 325/422/333 36/44/333
f 32/40/334 323/424/334 324/423/334 34/42/334
f 30/38/335 338/425/335 323/424/335 32/40/335
f 28/36/336 322/426/336 338/425/336 30/38/336
f 26/34/337 321/137/337 322/426/337 28/36/337
f 25/32/338 320/427/338 321/137/338 26/34/338
f 24/30/339 319/428/339 320/427/339 25/32/339
f 23/28/340 318/429/340 319/428/340 24/30/340
f 22/26/341 317/430/341 318/429/341 23/28/341
f 21/24/342 316/431/342 317/430/342 22/26/342
f 20/22/343 315/432/343 316/431/343 21/24/343
f 19/20/344 314/433/344 315/432/344 20/22/344
f 18/18/345 313/434/345 314/433/345 19/20/345
f 16/16/346 312/435/346 313/434/346 18/18/346
f 14/14/347 311/436/347 312/435/347 16/16/347
f 12/12/348 310/437/348 311/436/348 14/14/348
f 10/10/349 309/438/349 310/437/349 12/12/349
f 8/8/350 308/439/350 309/438/350 10/10/350
f 6/6/351 337/440/351 308/439/351 8/8/351
f 4/4/352 335/441/352 337/440/352 6/6/352
f 2/1/353 307/442/353 335/441/353 4/4/353
f 334/412/354 366/130/354 339/131/354 307/411/354
f 333/413/355 365/129/355 366/130/355 334/412/355
f 332/414/356 364/128/356 365/129/356 333/413/356
f 331/415/357 363/127/357 364/128/357 332/414/357
f 330/416/358 362/126/358 363/127/358 331/415/358
f 329/417/359 361/125/359 362/126/359 330/416/359
f 328/418/360 360/124/360 361/125/360 329/417/360
f 336/419/361 368/123/361 360/124/361 328/418/361
f 327/420/362 359/122/362 368/123/362 336/419/362
f 326/421/363 358/121/363 359/122/363 327/420/363
f 325/422/364 357/120/364 358/121/364 326/421/364
f 324/423/365 356/119/365 357/120/365 325/422/365
f 323/424/366 355/118/366 356/119/366 324/423/366
f 338/425/367 370/117/367 355/118/367 323/424/367
f 322/426/368 354/116/368 370/117/368 338/425/368
f 321/137/369 353/115/369 354/116/369 322/426/369
f 320/427/370 352/114/370 353/115/370 321/137/370
f 319/428/371 351/113/371 352/114/371 320/427/371
f 318/429/372 350/112/372 351/113/372 319/428/372
f 317/430/373 349/111/373 350/112/373 318/429/373
f 316/431/374 348/110/374 349/111/374 317/430/374
f 315/432/375 347/109/375 348/110/375 316/431/375
f 314/433/376 346/108/376 347/109/376 315/432/376
f 313/434/377 345/107/377 346/108/377 314/433/377
f 312/435/378 344/106/378 345/107/378 313/434/378
f 311/436/379 343/105/379 344/106/379 312/435/379
f 310/437/380 342/104/380 343/105/380 311/436/380
f 309/438/381 341/103/381 342/104/381 310/437/381
f 308/439/382 340/102/382 341/103/382 309/438/382
f 337/440/383 369/101/383 340/102/383 308/439/383
f 335/441/384 367/100/384 369/101/384 337/440/384
f 307/442/385 339/99/385 367/100/385 335/441/385
o 
v 0.000000 0.000000 0.000000
o .001
v 0.000000 0.000000 0.000000
